<svg xmlns="http://www.w3.org/2000/svg" width="64" height="64"><path style="line-height:normal;-inkscape-font-specification:Sans;text-indent:0;text-align:start;text-decoration-line:none;text-transform:none;block-progression:tb;marker:none" d="M 10.40625 1.9921875 C 10.17428 2.0531875 9.99841 2.2834375 10 2.5234375 L 10 6.3359375 C 10 7.0887375 10.39541 7.7567375 11 8.1484375 L 11 8.8671875 L 11 11.054688 C 11.12142 12.787486 11.78853 13.997687 12.71875 14.742188 C 12.60971 15.601487 12.2408 16.097988 11.625 16.554688 C 10.89709 17.094587 9.83693 17.514588 8.71875 17.992188 C 7.60057 18.469787 6.41327 19.043788 5.5 20.054688 C 4.58673 21.065587 3.99949 22.480937 4 24.523438 L 4 24.898438 L 4.3125 25.023438 C 7.17469 26.265536 8.62114 26.902337 9.34375 27.210938 C 9.70506 27.365137 9.86685 27.451487 9.96875 27.492188 C 10.01975 27.512187 10.03915 27.507438 10.09375 27.523438 C 10.10735 27.523438 10.12925 27.549688 10.15625 27.554688 L 10.1875 27.554688 C 10.2695 27.587687 10.44441 27.660986 10.78125 27.804688 C 11.48528 28.105087 12.88376 28.699887 15.71875 29.929688 L 15.9375 30.023438 L 16.15625 29.929688 C 19.04102 28.704487 20.48288 28.108087 21.21875 27.804688 C 21.57188 27.659187 21.7519 27.558236 21.84375 27.523438 C 21.85975 27.522737 21.8617 27.523438 21.875 27.523438 C 21.9288 27.513438 21.97836 27.499188 22 27.492188 C 22.0433 27.478188 22.04415 27.480936 22.09375 27.460938 C 22.19315 27.419937 22.39614 27.333088 22.75 27.179688 C 23.45771 26.872886 24.8694 26.251437 27.6875 25.023438 L 28 24.898438 L 28 24.523438 C 28 22.529537 27.40707 21.126237 26.5 20.148438 C 25.59293 19.170738 24.41655 18.646287 23.3125 18.179688 C 22.20845 17.713088 21.15546 17.296786 20.4375 16.742188 C 19.73276 16.197788 19.32719 15.570588 19.3125 14.367188 C 20.28352 13.564287 20.95779 12.434688 21 11.054688 L 21 8.8671875 L 21 7.9921875 L 21 6.1796875 C 21.00015 4.4343875 19.67768 2.9921875 18 2.9921875 L 16.5625 2.9921875 L 12 2.9921875 C 11.65697 2.9921875 11.37441 2.9361875 11.25 2.8671875 C 11.12559 2.7981875 11.09375 2.7870375 11.09375 2.5234375 C 11.09675 2.1884375 10.72971 1.9051875 10.40625 1.9921875 z M 16 16.578125 C 16.809037 16.578125 17.464905 17.233969 17.464844 18.042969 C 17.463928 18.442869 17.300761 18.843834 17.021484 19.115234 C 17.021484 19.115234 16.657907 19.292753 16.814453 19.876953 L 18 26.507812 L 16 27.507812 L 14.039062 26.496094 L 15.246094 19.876953 C 15.402911 19.393253 15.05496 19.143234 15.03125 19.115234 C 14.720139 18.841434 14.535715 18.468969 14.535156 18.042969 C 14.535095 17.233969 15.190963 16.578125 16 16.578125 z " color="#000" enable-background="accumulate" font-family="Sans" font-weight="400" overflow="visible"/></svg>