<svg xmlns="http://www.w3.org/2000/svg" width="24" height="24" viewBox="0 0 24 24"><path fill="#000" fill-rule="evenodd" d="M11.8604,23.0068 C11.9154,23.0068 11.9704,23.0078 12.0264,23.0088 C13.0184,23.0088 13.8464,22.7468 14.5574,22.2068 C15.1564,21.7518 15.8354,21.2358 16.6964,21.0818 C17.5514,20.9298 18.3904,20.9908 18.9724,21.0988 C19.0884,20.5428 19.2904,19.7898 20.1044,19.6568 C20.4224,19.6038 20.6914,19.5498 20.9184,19.4968 C18.6054,18.2798 17.5244,15.8288 17.2984,15.2578 C16.9214,14.4398 17.0234,13.7978 17.1774,13.4078 C17.3594,12.9488 17.6864,12.6248 18.0404,12.3918 C17.5244,12.2738 17.2454,12.0228 17.1324,11.9008 C16.9504,11.7038 16.8554,11.4408 16.8694,11.1718 L16.9064,10.5118 C16.9954,9.0058 17.1104,7.0408 16.7214,6.1038 C15.5284,3.2318 13.0204,3.0088 12.2804,3.0088 L11.8354,3.0138 C11.0964,3.0138 8.5944,3.2368 7.4034,6.1058 C7.0144,7.0428 7.1304,9.0068 7.2144,10.4418 L7.2554,11.1728 C7.2684,11.4388 7.1754,11.6998 6.9964,11.8968 C6.8794,12.0248 6.5914,12.2848 6.0954,12.3998 C6.4464,12.6328 6.7684,12.9538 6.9474,13.4078 C7.1014,13.7988 7.2024,14.4408 6.8124,15.2898 C6.6834,15.6128 5.5724,18.2158 3.1404,19.4848 C3.3844,19.5428 3.6754,19.6018 4.0214,19.6598 C4.8344,19.7928 5.0364,20.5498 5.1524,21.1058 C5.6864,21.0038 6.5604,20.9278 7.4274,21.0818 C8.2874,21.2358 8.9384,21.7298 9.5684,22.2068 C9.8304,22.4058 10.0984,22.6028 10.3954,22.7458 C10.6874,22.8858 11.0014,22.9618 11.3224,22.9908 C11.5014,23.0078 11.6814,23.0058 11.8604,23.0068 M12.0264,25.0088 C10.9394,25.0098 9.8514,24.7448 8.9304,24.1658 C8.2194,23.7188 7.5594,23.0978 6.7244,22.9998 C6.2074,22.9388 5.6914,23.0918 5.1754,23.1608 C4.6584,23.2288 4.0774,23.1938 3.7004,22.8338 C3.3554,22.5058 3.2704,21.9958 3.2044,21.5238 C2.4634,21.3938 1.7024,21.2558 1.0624,20.8598 C0.4704,20.4928 -0.1036,19.7598 0.0164,19.0178 C0.0644,18.7168 0.4234,18.4608 0.6674,18.3178 C0.9704,18.1418 1.3024,18.0248 1.6274,17.8988 C1.6954,17.8728 1.7634,17.8458 1.8304,17.8188 C3.4044,17.1718 4.6394,15.7538 5.0634,14.1058 C4.5234,13.8498 3.9444,13.6768 3.4274,13.3768 C2.9104,13.0778 2.4444,12.6138 2.3354,12.0268 C2.2114,11.3508 2.6194,10.6398 3.2294,10.3238 C3.8384,10.0078 4.6004,10.0598 5.2124,10.3708 C5.0634,8.5258 5.0004,6.5968 5.7454,4.9028 C6.8014,2.5038 9.4414,0.9878 12.0624,0.9878 C14.6804,0.9888 17.3164,2.5008 18.3754,4.8948 C19.1184,6.5748 19.0654,8.4878 18.9144,10.3188 C19.5404,10.0338 20.2984,9.9988 20.9054,10.3218 C21.5124,10.6458 21.9184,11.3588 21.7894,12.0338 C21.6784,12.6208 21.2094,13.0808 20.6924,13.3808 C20.1754,13.6798 19.5964,13.8558 19.0614,14.1208 C19.5094,15.9318 20.9444,17.4658 22.7214,18.0338 C22.9814,18.1168 23.2544,18.1838 23.4784,18.3398 C24.2024,18.8418 24.0364,20.0438 23.3834,20.6348 C22.7304,21.2258 21.8004,21.3708 20.9284,21.4898 C20.8554,21.9908 20.7594,22.5378 20.3744,22.8668 C19.6774,23.4638 18.6214,22.9598 17.7044,22.9888 C16.6084,23.0238 15.7224,23.8398 14.7574,24.3608 C13.9224,24.8118 12.9744,25.0078 12.0264,25.0088" transform="translate(0 -1)"/></svg>